<svg width="163" height="160" viewBox="0 0 163 160" fill="none" xmlns="http://www.w3.org/2000/svg">
<g style="mix-blend-mode:multiply">
<path d="M162.42 75.7895V151.579C162.42 156.232 158.651 160 153.999 160H78.2093C73.5566 160 69.7882 156.232 69.7882 151.579V50.5263C69.7882 45.8737 73.5566 42.1053 78.2093 42.1053H128.736L162.42 75.7895Z" fill="#199BE2"/>
<path d="M111.894 108.32V94.5516C111.894 92.8421 109.827 91.9874 108.623 93.2L92.8373 109.069C91.4605 110.455 91.4605 112.695 92.8373 114.084L108.623 129.954C109.827 131.171 111.894 130.316 111.894 128.606V117.802" fill="#004697"/>
<path d="M128.737 42.1053V67.3684C128.737 72.0211 132.506 75.7895 137.158 75.7895H162.421L128.737 42.1053Z" fill="#004697"/>
<path d="M93.2101 33.6842V109.474C93.2101 114.126 89.4417 117.895 84.789 117.895H8.99954C4.34691 117.895 0.578491 114.126 0.578491 109.474V8.42105C0.578491 3.76842 4.34691 0 8.99954 0H59.5259L93.2101 33.6842Z" fill="#00E0FF"/>
<path d="M59.5258 0V25.2632C59.5258 29.9158 63.2942 33.6842 67.9468 33.6842H93.21L59.5258 0Z" fill="#0079D2"/>
<path d="M51.1039 75.6968V86.501C51.1039 88.2105 53.1713 89.0653 54.3755 87.8526L70.1607 71.9831C71.5376 70.5937 71.5376 68.3537 70.1607 66.9684L54.3755 51.0989C53.1713 49.8821 51.1039 50.7368 51.1039 52.4463V66.2147" fill="#0079D2"/>
<path d="M55.3154 63.1579H23.7365C22.5744 63.1579 21.6312 64.1011 21.6312 65.2632V73.6842C21.6312 74.8463 22.5744 75.7895 23.7365 75.7895H55.3154" fill="#0079D2"/>
<path d="M103.474 117.895H139.263C140.426 117.895 141.369 116.952 141.369 115.789V107.368C141.369 106.206 140.426 105.263 139.263 105.263H103.474" fill="#004697"/>
</g>
</svg>
